<svg width="265" height="36" viewBox="0 0 265 36" fill="none" xmlns="http://www.w3.org/2000/svg">
<path d="M93.9183 30.169H82.4117L74.8963 0.447266H85.0866L86.3604 6.56146C87.5918 12.888 88.356 17.0915 89.0779 21.2525C89.7148 17.0915 90.3517 12.888 91.3282 7.45311L92.9417 0.447266H103.557L105.297 7.58049C106.359 12.803 107.123 17.049 107.845 21.0827C108.439 16.9641 109.076 12.9304 110.223 6.68884L111.454 0.447266H120.965L114.087 30.169H102.792L101.009 22.4838C99.8626 16.9641 99.1408 12.9729 98.3765 8.98166C97.6547 12.9304 96.9329 16.9216 95.7865 22.4414L93.9183 30.169Z" fill="white"/>
<path d="M132.808 30.169H123.254V0.447266H132.808V30.169Z" fill="white"/>
<path d="M146.142 30.169H137.14V0.447266H149.284L158.922 16.8367V0.447266H167.924V30.169H158.073L146.142 9.74594V30.169Z" fill="white"/>
<path d="M195.863 30.169H172.298V0.447266H195.863V7.62295H181.426V11.8265H192.848V18.3653H181.426V22.9509H195.863V30.169Z" fill="white"/>
<path d="M229.823 30.169H220.949V9.53364C219.378 13.1427 216.406 15.4355 212.754 15.7328V6.81622C216.194 6.56146 219.972 5.07537 221.756 0.447266H229.823V30.169Z" fill="white"/>
<path d="M264.805 30.169H255.931V9.53364C254.36 13.1427 251.388 15.4355 247.736 15.7328V6.81622C251.175 6.56146 254.954 5.07537 256.738 0.447266H264.805V30.169Z" fill="white"/>
<path d="M48.2692 35.0717C50.8631 35.0717 52.9659 32.969 52.9659 30.3751C52.9659 27.7812 50.8631 25.6785 48.2692 25.6785C45.6753 25.6785 43.5726 27.7812 43.5726 30.3751C43.5726 32.969 45.6753 35.0717 48.2692 35.0717Z" fill="white"/>
<path d="M57.8685 30.374H69.8386L62.6083 0.610212H41.7362V0.622185C41.5369 0.614203 41.3365 0.610212 41.1352 0.610212C34.6026 0.610212 29.0532 4.81885 27.0509 10.6733H10.4237V9.38426H0.273438V21.5991H10.4237V20.3085H27.0503C28.7948 25.4111 33.2337 29.2637 38.6697 30.1696C38.7783 24.9617 43.034 20.7738 48.268 20.7738C53.5702 20.7738 57.8685 25.0719 57.8685 30.374Z" fill="white"/>
<path d="M204.365 21.3651C206.959 21.3651 209.061 19.2623 209.061 16.6684C209.061 14.0745 206.959 11.9718 204.365 11.9718C201.771 11.9718 199.668 14.0745 199.668 16.6684C199.668 19.2623 201.771 21.3651 204.365 21.3651Z" fill="white"/>
<path d="M239.384 21.3651C241.978 21.3651 244.081 19.2623 244.081 16.6684C244.081 14.0745 241.978 11.9718 239.384 11.9718C236.79 11.9718 234.688 14.0745 234.688 16.6684C234.688 19.2623 236.79 21.3651 239.384 21.3651Z" fill="white"/>
</svg>
