<svg width="265" height="35" viewBox="0 0 265 35" fill="none" xmlns="http://www.w3.org/2000/svg">
<path d="M93.9183 30.0172H82.4117L74.8963 0.29541H85.0866L86.3604 6.4096C87.5918 12.7361 88.356 16.9396 89.0779 21.1007C89.7148 16.9396 90.3517 12.7361 91.3282 7.30126L92.9417 0.29541H103.557L105.297 7.42864C106.359 12.6512 107.123 16.8971 107.845 20.9308C108.439 16.8122 109.076 12.7786 110.223 6.53698L111.454 0.29541H120.965L114.087 30.0172H102.792L101.009 22.332C99.8626 16.8122 99.1408 12.821 98.3765 8.82981C97.6547 12.7786 96.9329 16.7698 95.7865 22.2895L93.9183 30.0172Z" fill="#E02424"/>
<path d="M132.808 30.0172H123.254V0.29541H132.808V30.0172Z" fill="#E02424"/>
<path d="M146.142 30.0172H137.14V0.29541H149.284L158.922 16.6848V0.29541H167.924V30.0172H158.073L146.142 9.59408V30.0172Z" fill="#E02424"/>
<path d="M195.863 30.0172H172.298V0.29541H195.863V7.4711H181.426V11.6746H192.848V18.2134H181.426V22.799H195.863V30.0172Z" fill="#E02424"/>
<path d="M229.823 30.0172H220.949V9.38178C219.378 12.9909 216.406 15.2837 212.754 15.5809V6.66436C216.194 6.4096 219.972 4.92352 221.756 0.29541H229.823V30.0172Z" fill="#E02424"/>
<path d="M264.805 30.0172H255.931V9.38178C254.36 12.9909 251.388 15.2837 247.736 15.5809V6.66436C251.175 6.4096 254.954 4.92352 256.738 0.29541H264.805V30.0172Z" fill="#E02424"/>
<path d="M48.2692 34.9199C50.8631 34.9199 52.9659 32.8171 52.9659 30.2232C52.9659 27.6293 50.8631 25.5266 48.2692 25.5266C45.6753 25.5266 43.5726 27.6293 43.5726 30.2232C43.5726 32.8171 45.6753 34.9199 48.2692 34.9199Z" fill="#E02424"/>
<path d="M57.8685 30.2221H69.8386L62.6083 0.458357H41.7362V0.470329C41.5369 0.462348 41.3365 0.458357 41.1352 0.458357C34.6026 0.458357 29.0532 4.66699 27.0509 10.5214H10.4237V9.2324H0.273438V21.4473H10.4237V20.1567H27.0503C28.7948 25.2592 33.2337 29.1119 38.6697 30.0178C38.7783 24.8099 43.034 20.622 48.268 20.622C53.5702 20.622 57.8685 24.92 57.8685 30.2221Z" fill="#E02424"/>
<path d="M204.365 21.2132C206.959 21.2132 209.061 19.1105 209.061 16.5166C209.061 13.9227 206.959 11.8199 204.365 11.8199C201.771 11.8199 199.668 13.9227 199.668 16.5166C199.668 19.1105 201.771 21.2132 204.365 21.2132Z" fill="#E02424"/>
<path d="M239.384 21.2132C241.978 21.2132 244.081 19.1105 244.081 16.5166C244.081 13.9227 241.978 11.8199 239.384 11.8199C236.79 11.8199 234.688 13.9227 234.688 16.5166C234.688 19.1105 236.79 21.2132 239.384 21.2132Z" fill="#E02424"/>
</svg>
